<svg width="997" height="997" viewBox="0 0 997 997" fill="none" xmlns="http://www.w3.org/2000/svg">
<g filter="url(#filter0_d_28_4)">
<rect x="4" y="4" width="981" height="981" rx="100" fill="#F7FEE7"/>
<path d="M380 711.764H127C101.599 711.764 81 691.165 81 665.766L81 481.772C81 456.372 101.599 435.774 127 435.774L380 435.774C392.65 435.774 403 425.424 403 412.775C403 400.125 392.65 389.775 380 389.775L127 389.775C76.1844 389.775 35 431.03 35 481.772L35 665.766C35 699.733 53.6156 729.071 81 744.998L81 826.76C81 839.409 91.2925 849.759 104 849.759C116.707 849.759 127 839.409 127 826.76L127 757.762H380C392.65 757.762 403 747.413 403 734.763C403 722.114 392.65 711.764 380 711.764ZM891.319 394.232C876.081 389.632 863 400.269 863 414.931C863 425.234 868.974 435.041 878.654 438.548C896.35 444.973 909 461.935 909 480.478V665.766C909 682.569 899.982 697.275 886.517 705.31C872.2 713.776 863 728.726 863 745.4V825.552C863 837.01 870.827 847.632 882.133 849.472C896.494 851.771 909 840.703 909 826.76V744.998C936.312 729.013 955 699.689 955 665.766V480.478C955 440.805 928.262 406.162 891.319 394.232Z" fill="#BEF064"/>
<path d="M510.519 345.524C504.624 345.524 498.728 343.22 494.27 338.755L402.225 246.592C393.238 237.605 393.252 223.014 402.225 214.012C411.198 205.01 425.765 205.01 434.752 214.012L526.783 306.192C535.77 315.18 535.77 329.77 526.783 338.772C522.293 343.275 516.415 345.524 510.519 345.524Z" fill="#D9F99D"/>
<path d="M654.317 302.315C654.317 315.053 644.027 325.36 631.31 325.36C618.655 325.36 608.302 314.99 608.302 302.315V164.045C608.302 151.307 618.655 141 631.31 141C643.964 141 654.317 151.307 654.317 164.045V302.315Z" fill="#D9F99D"/>
<path d="M772.678 344.534C768.188 349.036 762.301 351.286 756.414 351.286C750.518 351.286 744.623 348.981 740.15 344.534C731.163 335.546 731.163 320.956 740.15 311.954L786.166 265.864L832.181 219.774C841.154 210.772 855.721 210.786 864.708 219.774C873.696 228.761 873.696 243.352 864.708 252.353L772.678 344.534Z" fill="#D9F99D"/>
<path d="M311.156 550.306C292.066 550.306 276.578 534.958 276.578 516.041C276.578 497.052 291.994 481.775 311.156 481.775C330.261 481.775 345.735 497.109 345.735 516.041C345.735 534.958 330.261 550.306 311.156 550.306Z" fill="#BEF064"/>
<path d="M172.843 550.306C153.753 550.306 138.265 534.958 138.265 516.041C138.265 497.052 153.753 481.775 172.843 481.775C191.948 481.775 207.422 497.109 207.422 516.041C207.422 534.958 191.948 550.306 172.843 550.306Z" fill="#BEF064"/>
<path fill-rule="evenodd" clip-rule="evenodd" d="M633 343.729C505.968 343.729 403 446.697 403 573.729C403 700.76 505.968 803.729 633 803.729C760.032 803.729 863 700.76 863 573.729C863 446.697 760.075 343.729 633 343.729ZM633 757.729C531.541 757.729 449 675.187 449 573.729C449 472.27 531.541 389.729 633 389.729C734.459 389.729 817 472.27 817 573.729C817 675.216 734.487 757.729 633 757.729Z" fill="#84CC16"/>
</g>
<defs>
<filter id="filter0_d_28_4" x="0" y="0" width="997" height="997" filterUnits="userSpaceOnUse" color-interpolation-filters="sRGB">
<feFlood flood-opacity="0" result="BackgroundImageFix"/>
<feColorMatrix in="SourceAlpha" type="matrix" values="0 0 0 0 0 0 0 0 0 0 0 0 0 0 0 0 0 0 127 0" result="hardAlpha"/>
<feMorphology radius="4" operator="dilate" in="SourceAlpha" result="effect1_dropShadow_28_4"/>
<feOffset dx="4" dy="4"/>
<feGaussianBlur stdDeviation="2"/>
<feComposite in2="hardAlpha" operator="out"/>
<feColorMatrix type="matrix" values="0 0 0 0 0 0 0 0 0 0 0 0 0 0 0 0 0 0 0.05 0"/>
<feBlend mode="normal" in2="BackgroundImageFix" result="effect1_dropShadow_28_4"/>
<feBlend mode="normal" in="SourceGraphic" in2="effect1_dropShadow_28_4" result="shape"/>
</filter>
</defs>
</svg>
